<svg xmlns="http://www.w3.org/2000/svg" xmlns:xlink="http://www.w3.org/1999/xlink" version="1.1" id="Layer_1" x="0px" y="0px" style="enable-background:new 0 0 2000 2000;" xml:space="preserve" viewBox="483.23 553.69 1033.53 892.61">
<style type="text/css">
	.st0{fill:#3E6D72;}
	.st1{fill:#97A55E;}
	.st2{fill:#FFFFFF;}
	.st3{fill:#3E6D73;}
</style>
<g>
	<g>
		<path class="st0" d="M822.49,801.4c22.93,1.5,44.24,12.46,60.49,28.71l66.78,66.76c14.92,14.93,35.32,22.38,56.67,20.51    c17.32-1.52,33.29-10.07,45.58-22.37l67.14-67.14c36.97-36.97,98.08-35.45,133.06,4.56c31.89,36.47,27.72,92.24-6.53,126.5    l-61.29,61.3l0.01,0c34.47,34.46,90.34,34.45,124.8-0.02l1.14-1.14c72.03-72.03,69.85-190.6-6.54-259.82    c-71.47-64.75-182.52-58.29-250.72,9.89l-53.14,53.13l-56.8-56.8c-72.04-72.03-190.61-69.85-259.82,6.55    c-64.75,71.47-58.28,182.53,9.91,250.72l179.92,179.92c36.97,36.97,35.45,98.09-4.57,133.07c-36.48,31.89-92.25,27.72-126.51-6.55    l-134.05-134.05c-34.46-34.46-90.33-34.46-124.79,0l198.72,198.73c34.96,34.96,80.87,52.44,126.8,52.44    c46.48,0,92.96-17.91,128.07-53.73c69.38-70.77,65.49-185.55-4.59-255.63L754.44,959.15c-36.07-36.07-38.46-95.6-2.25-131.52    C770.81,809.15,796.01,799.67,822.49,801.4z"/>
		<path class="st1" d="M1391.97,1195.13l-136.33,136.33c-36.97,36.97-98.09,35.45-133.07-4.57c-31.9-36.48-27.72-92.25,6.55-126.52    l90.91-90.89c-34.46-34.46-90.33-34.46-124.8,0l-27.46,27.46c-70.09,70.08-73.98,184.86-4.6,255.63    c35.11,35.81,81.58,53.73,128.07,53.73c45.92,0,91.84-17.49,126.8-52.44l198.72-198.73    C1482.31,1160.67,1426.43,1160.67,1391.97,1195.13z"/>
		<path class="st0" d="M1000,729.87c48.65,0,88.09-39.44,88.09-88.09c0-48.65-39.44-88.09-88.09-88.09    c-48.65,0-88.09,39.44-88.09,88.09C911.91,690.43,951.35,729.87,1000,729.87z"/>
	</g>
</g>
</svg>