<?xml version="1.0" encoding="UTF-8"?>
<svg version="1.1" xmlns="http://www.w3.org/2000/svg" viewBox="350 640 1300 710" preserveAspectRatio="xMidYMid meet">
<path d="M0 0 C6.99909605 5.80231666 13.33129024 12.23696665 19.70703125 18.70703125 C20.90902998 19.91909126 22.11150129 21.1306828 23.31445312 22.34179688 C26.22160508 25.27068655 29.12234814 28.20578167 32.01953125 31.14453125 C36.06761531 29.54340101 38.69250553 26.65915785 41.640625 23.578125 C42.75295062 22.44045732 43.86559177 21.30309808 44.97851562 20.16601562 C46.70670367 18.38876307 48.43153346 16.60853645 50.15014648 14.82202148 C68.48885224 -4.19362531 89.44599454 -16.56394894 116.31445312 -17.32568359 C131.79664619 -17.46680938 145.19370714 -15.1889792 159.01953125 -7.85546875 C160.24349609 -7.22898437 160.24349609 -7.22898437 161.4921875 -6.58984375 C179.6197835 3.40762599 193.02602164 21.26302219 199.39453125 40.76953125 C205.59678135 63.19093982 203.98007955 86.24656833 193.14453125 107.01953125 C190.20429966 112.10085456 186.75967839 116.63233539 183.01953125 121.14453125 C182.560625 121.76070312 182.10171875 122.376875 181.62890625 123.01171875 C175.83866489 130.49909982 166.44502097 136.65559634 157.01953125 138.14453125 C143.61925342 139.34187551 132.45568129 138.13502723 121.578125 129.609375 C120.01953125 128.14453125 120.01953125 128.14453125 118.01953125 125.14453125 C118.41963409 124.75775208 118.81973694 124.3709729 119.23196411 123.97247314 C123.43633839 119.90202177 127.61849431 115.80966544 131.7890625 111.70458984 C133.34316923 110.18044413 134.90264523 108.66175147 136.46777344 107.14892578 C149.00561595 95.23866712 149.00561595 95.23866712 157.01953125 80.14453125 C157.39803223 79.1380957 157.39803223 79.1380957 157.78417969 78.11132812 C160.81447723 69.00530921 159.98187295 58.37928903 156.28125 49.640625 C150.68338699 38.56621489 143.54124527 31.83462989 132.01953125 27.14453125 C120.50860031 23.41073348 109.20915739 24.78917066 98.45703125 30.26953125 C90.23044964 35.29870582 83.58666204 42.5085422 76.90234375 49.375 C76.27346756 50.01872559 75.64459137 50.66245117 74.99665833 51.32568359 C72.38682579 53.99866338 69.77746232 56.67146784 67.19287109 59.36889648 C57.56429594 69.39795648 48.45857938 78.69386279 33.67578125 79.24609375 C20.78427982 78.7531834 12.37101716 73.15564679 3.65234375 64.02734375 C2.89210907 63.25196259 2.13187439 62.47658142 1.34860229 61.67770386 C-1.8712469 58.39311332 -5.06669399 55.0851688 -8.26416016 51.77880859 C-26.99664331 32.15939099 -26.99664331 32.15939099 -52.54296875 24.70703125 C-64.77002091 25.42232498 -75.37271919 29.97207113 -83.85546875 38.89453125 C-92.18616773 49.14769923 -93.87522766 60.3658617 -92.98046875 73.14453125 C-90.43136786 85.58414359 -83.30229839 94.2899155 -74.43994141 102.99389648 C-73.60335495 103.82770844 -72.76676849 104.66152039 -71.90483093 105.52059937 C-69.15818622 108.25503348 -66.40127375 110.9788749 -63.64453125 113.703125 C-61.7199578 115.6151088 -59.79797865 117.52969113 -57.87606812 119.4443512 C-52.31039472 124.9860035 -46.73348064 130.51626372 -41.15540314 136.04542542 C-34.06179374 143.07803381 -26.97382254 150.11629747 -19.8950218 157.16381222 C-16.60200837 160.44143692 -13.30064521 163.71050316 -9.99746704 166.97789001 C-8.25797217 168.70691468 -6.51873165 170.43619529 -4.77978516 172.16577148 C-4.00445938 172.92919357 -3.22913361 173.69261566 -2.43031311 174.47917175 C16.13209016 193.00148179 27.17351214 214.50217368 27.33203125 240.95703125 C27.33203125 261.90640032 22.00018621 280.12175815 8.01953125 296.14453125 C7.24609375 297.11390625 6.47265625 298.08328125 5.67578125 299.08203125 C-6.46013371 313.61963263 -27.4951863 323.06905882 -45.98046875 325.14453125 C-69.80833324 326.5033125 -91.9315461 321.88599863 -110.4539032 306.02671814 C-120.72619743 296.6239491 -130.56649312 286.7812321 -140.4375 276.9609375 C-141.40831547 275.99549656 -142.37913242 275.03005709 -143.34995079 274.06461906 C-147.38184355 270.05423752 -151.41235207 266.04247338 -155.43918324 262.02700901 C-161.18112863 256.30139548 -166.93150793 250.58454903 -172.69349271 244.87910038 C-176.76694642 240.84425493 -180.83085627 236.79995535 -184.88770121 232.7484116 C-187.3042676 230.33549912 -189.72484415 227.92695693 -192.15574074 225.52847481 C-194.85102817 222.86455044 -197.53038614 220.18556272 -200.20629883 217.50219727 C-201.41771042 216.31539368 -201.41771042 216.31539368 -202.65359497 215.10461426 C-203.37532394 214.3745668 -204.09705292 213.64451935 -204.84065247 212.89234924 C-205.4749307 212.26138116 -206.10920893 211.63041307 -206.76270771 210.98032475 C-207.98046875 209.14453125 -207.98046875 209.14453125 -207.7904768 207.01014614 C-205.69659952 202.18751675 -198.84465778 199.40536729 -194.23046875 197.33203125 C-183.81086817 193.5248695 -172.36790296 194.1310022 -161.95703125 197.5859375 C-152.29105309 202.64725677 -144.88802562 211.01659039 -137.32738113 218.7084198 C-135.22894675 220.84204638 -133.12315168 222.96815708 -131.01522827 225.09240723 C-125.02844579 231.12773615 -119.05313607 237.17432728 -113.08691406 243.22998047 C-109.42177685 246.94901644 -105.7466817 250.65797555 -102.06550217 254.36112976 C-100.67516079 255.76378924 -99.28861152 257.17021914 -97.906147 258.5806427 C-85.59321938 271.14042305 -74.27561946 281.0711881 -55.953125 282.13671875 C-45.06887342 282.16532388 -34.6412574 277.88055902 -26.60546875 270.51953125 C-18.96856912 262.19849269 -14.35077339 250.71728207 -14.734375 239.3671875 C-16.2908357 225.30962976 -22.73919777 215.74070257 -32.67285156 206.0456543 C-33.52573257 205.19700806 -34.37861359 204.34836182 -35.25733948 203.47399902 C-37.57503086 201.17117841 -39.90124874 198.87740842 -42.23120594 196.58701301 C-44.6864002 194.16837447 -47.12875694 191.73684579 -49.57220459 189.30635071 C-55.25391531 183.65876549 -60.95028768 178.02610696 -66.64864349 172.39532471 C-73.88792623 165.24085345 -81.12131517 158.08049815 -88.3396728 150.90491134 C-90.76292496 148.49686077 -93.1894238 146.09228736 -95.62412262 143.6958065 C-121.01938088 118.68367455 -121.01938088 118.68367455 -127.35546875 105.20703125 C-127.83705444 104.21533936 -127.83705444 104.21533936 -128.32836914 103.20361328 C-137.44555834 83.77368987 -139.46604743 59.66655511 -132.71679688 39.15185547 C-124.68023286 17.24315873 -109.49125799 -0.64423403 -88.3125 -10.64453125 C-59.63177377 -23.33337297 -24.68246753 -19.95791224 0 0 Z " fill="#3E6D72" transform="translate(966.98046875,754.85546875)"/>
<path d="M0 0 C1.42780584 1.0686094 2.84896272 2.14652816 4.25 3.25 C3.70023735 7.17942487 1.92571 8.90431359 -0.88330078 11.61279297 C-1.76156525 12.468237 -2.63982971 13.32368103 -3.54470825 14.20504761 C-4.01689915 14.65839352 -4.48909004 15.11173943 -4.97558975 15.57882309 C-6.46486123 17.01098661 -7.94255392 18.45419816 -9.41744995 19.90115356 C-13.61209309 24.01365467 -17.82091763 28.11122431 -22.05078125 32.1875 C-24.6416073 34.68583433 -27.21402833 37.2019987 -29.77660751 39.72928238 C-31.21193229 41.13476131 -32.66650576 42.5204988 -34.12161255 43.90548706 C-43.87824506 53.55106829 -49.93736591 64.40888218 -50.0625 78.3125 C-50.08575444 90.46552677 -46.4350207 99.48176327 -37.8671875 108.15625 C-28.9158804 116.44059696 -18.87363459 119.86065003 -6.703125 119.5546875 C10.8591881 117.74270282 21.82686546 106.10841293 33.5460701 94.14885902 C35.70924783 91.9421874 37.88256842 89.74595626 40.0586853 87.55204773 C45.45528313 82.10773199 50.83705995 76.64886512 56.21453857 71.18566895 C60.77660881 66.55098428 65.34654353 61.92436571 69.9282341 57.30907249 C72.05930077 55.15597979 74.17832243 52.9915008 76.29727173 50.82649231 C77.6150308 49.49739063 78.93338973 48.16888332 80.25244141 46.84106445 C80.82930191 46.24510971 81.40616241 45.64915497 82.00050354 45.03514099 C90.48725835 36.56600701 100.76077939 32.15069304 112.6875 31.875 C123.73827054 32.13968911 134.2188073 35.2188073 142.25 43.25 C141.96016614 46.92998591 140.14386924 48.73479524 137.61065674 51.27702332 C136.82872452 52.06886017 136.0467923 52.86069702 135.24116516 53.67652893 C134.37686386 54.53632858 133.51256256 55.39612823 132.62207031 56.28198242 C131.71621689 57.1946991 130.81036346 58.10741577 129.87705994 59.04779053 C127.3896392 61.55317814 124.8927163 64.0488881 122.39345264 66.54245543 C120.3014074 68.6314076 118.21397375 70.72493771 116.12649512 72.8184517 C111.19126107 77.76774689 106.24824732 82.70917603 101.30029297 87.64575195 C96.22013599 92.71448314 91.1527863 97.79575564 86.09180951 102.88363189 C81.73205863 107.2656734 77.36443985 111.6397644 72.99061084 116.00775415 C70.38517282 118.60984619 67.78260738 121.21464128 65.18753815 123.82707787 C43.73740801 145.40694417 22.7467172 162.39835467 -9.25 162.5 C-31.57764513 162.45302453 -52.16160381 154.72272012 -68.6328125 139.39453125 C-86.22578198 121.5743463 -93.02105197 100.61327528 -93.0690918 75.99731445 C-92.96608257 66.80689782 -91.76244058 58.9404947 -88.75 50.25 C-88.399375 49.21230469 -88.04875 48.17460938 -87.6875 47.10546875 C-81.96687522 31.94978574 -71.96940324 20.59489281 -60.75 9.25 C-60.15582275 8.63463379 -59.56164551 8.01926758 -58.94946289 7.38525391 C-42.74046651 -9.23111434 -19.78293056 -13.67880051 0 0 Z " fill="#97A55E" transform="translate(1098.75,917.75)"/>
<path d="M0 0 C19 0 19 0 24.0625 4.1875 C25.42221147 6.09216459 26.73310485 8.03237728 28 10 C29.57024443 12.05175039 31.15431365 14.09297335 32.75 16.125 C33.58975744 17.23084866 34.42826364 18.3376484 35.265625 19.4453125 C38.25682362 23.36823205 41.37510274 27.18331419 44.5 31 C50.14074051 37.90117692 55.59580416 44.91137948 61 52 C65.95 58.435 65.95 58.435 71 65 C71.33 43.55 71.66 22.1 72 0 C79.59 0 87.18 0 95 0 C95 35.97 95 71.94 95 109 C79 109 79 109 74 107 C72.18405955 105.18114939 70.60128912 103.42785676 69 101.4375 C68.52925049 100.86741211 68.05850098 100.29732422 67.57348633 99.70996094 C63.26460698 94.44253403 59.15817471 89.01897798 55.05541992 83.59057617 C51.09635812 78.37152123 46.99970048 73.28739636 42.8125 68.25 C29.44534342 52.16801513 29.44534342 52.16801513 24 44 C23.67 65.45 23.34 86.9 23 109 C15.41 109 7.82 109 0 109 C0 73.03 0 37.06 0 0 Z " fill="#97A55E" transform="translate(1545,1135)"/>
<path d="M0 0 C1.45962158 0.00845947 1.45962158 0.00845947 2.94873047 0.01708984 C9.74409187 0.13222682 15.80794067 0.63560808 22.125 3.3125 C23.10339844 3.7146875 24.08179688 4.116875 25.08984375 4.53125 C39.74943984 11.18629993 48.68591481 22.17087851 54.3984375 37.0234375 C58.89641631 51.19448901 57.62836181 69.06128909 51.125 82.3125 C47.8352256 87.98530004 44.00874512 92.91712939 39.125 97.3125 C38.63773438 97.79203125 38.15046875 98.2715625 37.6484375 98.765625 C26.58343256 109.14889978 10.71329974 112.01211631 -4.0078125 111.66015625 C-18.70736412 110.33868141 -32.60700827 105.27810475 -42.875 94.3125 C-52.35934181 82.92732977 -57.58058708 68.80314591 -57.12109375 53.91015625 C-55.58935123 37.74176298 -51.07903887 24.67012973 -38.875 13.3125 C-27.09413581 3.66182352 -15.08480762 -0.09142308 0 0 Z M-22.5 31 C-29.7507835 40.21551193 -30.71978347 50.96658871 -29.875 62.3125 C-28.2163734 70.52450453 -25.81229764 78.49963868 -18.98828125 83.76953125 C-10.9569088 89.07788599 -3.38967911 90.17946615 6.125 89.3125 C14.68468585 87.47749674 20.59698445 83.74875038 25.3671875 76.3984375 C31.35521336 65.42767479 31.46912442 53.01233359 28.15625 41.171875 C25.12518571 32.76756038 20.09048092 27.31559518 12.125 23.3125 C-0.15472833 18.52548726 -13.40570839 21.68917764 -22.5 31 Z " fill="#3E6D72" transform="translate(513.875,1133.6875)"/>
<path d="M0 0 C60.78329439 0 60.78329439 0 72.6171875 10.37890625 C79.51708989 18.46777487 80.66865934 27.79348284 80 38 C78.63093694 46.65398576 74.49536581 53.53377994 67.54296875 58.89453125 C65.39688554 60.33764547 63.23835192 61.70571487 61 63 C61.82628906 63.89203125 62.65257812 64.7840625 63.50390625 65.703125 C67.98896836 70.93942514 71.39338469 76.85904906 74.9375 82.75 C76.29996814 84.99528527 77.66324235 87.24008162 79.02734375 89.484375 C80.01323486 91.11342773 80.01323486 91.11342773 81.01904297 92.77539062 C83.52402729 96.85301361 86.12462602 100.86474286 88.75219727 104.86425781 C90 107 90 107 90 109 C85.79179855 109.08742801 81.58383224 109.14053641 77.375 109.1875 C76.18519531 109.21263672 74.99539063 109.23777344 73.76953125 109.26367188 C62.20903568 109.36054754 62.20903568 109.36054754 58 106 C56.13152428 103.5991172 54.69126521 101.04919445 53.25 98.375 C52.39098831 96.85005571 51.53160164 95.32532259 50.671875 93.80078125 C50.23552734 93.01396973 49.79917969 92.2271582 49.34960938 91.41650391 C47.12396358 87.43143841 44.81165296 83.49807645 42.5 79.5625 C42.07879883 78.83530762 41.65759766 78.10811523 41.22363281 77.35888672 C39.64366298 74.65249286 38.22621098 72.22621098 36 70 C32.7 69.67 29.4 69.34 26 69 C26 82.2 26 95.4 26 109 C17.42 109 8.84 109 0 109 C0 73.03 0 37.06 0 0 Z M26 20 C26 30.23 26 40.46 26 51 C38.49103813 51.49473725 38.49103813 51.49473725 49.4375 46.625 C53.22419252 42.74594913 54.29918357 40.03829334 54.375 34.625 C54.26839947 29.62810013 53.54338265 26.72987648 50 23 C44.82344122 19.67784871 40.5507961 19.62964501 34.625 19.8125 C31.77875 19.874375 28.9325 19.93625 26 20 Z " fill="#97A55E" transform="translate(1089,1135)"/>
<path d="M0 0 C8.58 0 17.16 0 26 0 C26.01458252 2.10890625 26.02916504 4.2178125 26.04418945 6.390625 C26.09465846 13.37964675 26.16127489 20.36844857 26.23571491 27.35725403 C26.28033108 31.59215368 26.31960614 35.82695907 26.34643555 40.06201172 C26.37255635 44.15355804 26.41301982 48.24473992 26.46318626 52.33605957 C26.47979591 53.89240973 26.4913468 55.44882285 26.49761391 57.00524902 C26.39549468 70.2547148 26.39549468 70.2547148 32.25 81.8125 C37.34577067 85.86595395 42.20387614 87.61544897 48.6640625 87.33984375 C53.76566562 86.59763728 58.24741573 85.07389139 61.640625 81.05859375 C65.08470335 75.6846439 66.1270332 71.45856784 66.20532227 65.05004883 C66.21522186 64.34735367 66.22512146 63.64465851 66.23532104 62.92066956 C66.26689234 60.59949099 66.29167613 58.27829195 66.31640625 55.95703125 C66.33697956 54.34705577 66.35797613 52.73708564 66.37937927 51.12712097 C66.43456106 46.89063862 66.48398749 42.65410784 66.53222656 38.4175415 C66.58247001 34.09407239 66.63814123 29.77067356 66.69335938 25.44726562 C66.80089336 16.96490158 66.90184728 8.48247779 67 0 C75.58 0 84.16 0 93 0 C93.09075842 9.57152236 93.16397804 19.14275388 93.20724869 28.71461105 C93.22802773 33.16032793 93.25616572 37.60573239 93.30175781 42.05126953 C93.34556452 46.3501513 93.36920971 50.64873463 93.37950897 54.94782257 C93.38683842 56.57911113 93.40114921 58.21038536 93.42292023 59.8415451 C93.61275409 74.66882833 91.30948818 86.71119947 81 98 C68.98635771 108.71863939 54.5964538 110.86211554 39 110 C28.02494663 108.34658152 16.4408863 103.99933111 9.4453125 95 C3.12051052 85.93759717 -0.13242301 77.73230633 -0.11352539 66.6394043 C-0.11367142 65.91690994 -0.11381744 65.19441559 -0.1139679 64.45002747 C-0.11327422 62.07472678 -0.10550745 59.69950565 -0.09765625 57.32421875 C-0.09579013 55.67226708 -0.09436714 54.02031485 -0.09336853 52.36836243 C-0.08955861 48.02992208 -0.07974139 43.69151545 -0.06866455 39.35308838 C-0.0584176 34.92224585 -0.05386388 30.49139785 -0.04882812 26.06054688 C-0.03811771 17.37368075 -0.0205333 8.68684846 0 0 Z " fill="#3E6D72" transform="translate(595,1135)"/>
<path d="M0 0 C9.24 0 18.48 0 28 0 C28.93457031 2.46339844 29.86914062 4.92679688 30.83203125 7.46484375 C38.52860756 27.73206897 46.28724664 47.97442784 54.125 68.1875 C54.52546539 69.22099579 54.92593079 70.25449158 55.33853149 71.31930542 C56.49808741 74.31093048 57.65888567 77.30206958 58.8203125 80.29296875 C59.18257431 81.22680893 59.54483612 82.16064911 59.91807556 83.12278748 C61.54626343 87.30919915 63.18906078 91.48779825 64.88574219 95.64697266 C65.1702121 96.34591141 65.45468201 97.04485016 65.74777222 97.76496887 C66.49323805 99.58800655 67.24604775 101.40803659 67.99951172 103.2277832 C69 106 69 106 69 109 C65.4375692 109.05827558 61.87526181 109.09368885 58.3125 109.125 C57.30509766 109.14175781 56.29769531 109.15851563 55.25976562 109.17578125 C54.28330078 109.18222656 53.30683594 109.18867187 52.30078125 109.1953125 C51.40528564 109.20578613 50.50979004 109.21625977 49.5871582 109.22705078 C46.70601822 108.97419996 44.59247258 108.2663535 42 107 C40.77734375 105.2578125 40.77734375 105.2578125 39.9375 103.125 C39.62167969 102.33222656 39.30585937 101.53945312 38.98046875 100.72265625 C34 86.89243028 34 86.89243028 34 84 C20.8 84 7.6 84 -6 84 C-6.99 87.63 -7.98 91.26 -9 95 C-9.62238073 96.84883687 -10.27549726 98.68874316 -11 100.5 C-11.309375 101.2940625 -11.61875 102.088125 -11.9375 102.90625 C-13.72187202 106.42251251 -15.25125437 107.75041812 -19 109 C-20.70016844 109.08178114 -22.40336297 109.10749501 -24.10546875 109.09765625 C-25.08837891 109.09443359 -26.07128906 109.09121094 -27.08398438 109.08789062 C-28.10814453 109.07951172 -29.13230469 109.07113281 -30.1875 109.0625 C-31.22326172 109.05798828 -32.25902344 109.05347656 -33.32617188 109.04882812 C-35.88417266 109.0370401 -38.44205733 109.02058515 -41 109 C-40.27481535 104.36018761 -38.64539503 100.12516917 -36.96484375 95.765625 C-36.65450699 94.95161728 -36.34417023 94.13760956 -36.02442932 93.29893494 C-34.99950626 90.6143868 -33.96864787 87.93216269 -32.9375 85.25 C-32.21855893 83.37157377 -31.49981177 81.49307331 -30.78125 79.61450195 C-25.07753592 64.72346879 -19.28879733 49.86570206 -13.47631836 35.0168457 C-8.91732773 23.36907673 -4.42227075 11.70059135 0 0 Z M13 27 C11.14666022 32.39280925 9.29529903 37.78629198 7.44580078 43.18041992 C6.81581641 45.01687153 6.18528346 46.85313505 5.55419922 48.68920898 C4.64928577 51.32226563 3.74632156 53.95598357 2.84375 56.58984375 C2.55939087 57.41588608 2.27503174 58.24192841 1.98205566 59.09300232 C0.60880606 62.47506058 0.60880606 62.47506058 0 66 C9.24 66 18.48 66 28 66 C27.14535156 63.43605469 26.29070312 60.87210938 25.41015625 58.23046875 C21.94010417 47.8203125 18.47005208 37.41015625 15 27 C14.34 27 13.68 27 13 27 Z " fill="#97A55E" transform="translate(1235,1135)"/>
<path d="M0 0 C8.91 0 17.82 0 27 0 C29.68709136 6.04595556 32.26533171 12.06125208 34.66015625 18.21875 C35.00284546 19.0949147 35.34553467 19.97107941 35.6986084 20.87379456 C36.82214682 23.74832704 37.94250936 26.62408352 39.0625 29.5 C39.84945391 31.51752564 40.63648328 33.53502186 41.42358398 35.55249023 C43.0846248 39.81160935 44.74395738 44.07138964 46.40234375 48.33154297 C48.60775563 53.99575492 50.81952181 59.65746465 53.0327301 65.31863403 C54.78820727 69.81142787 56.53995774 74.30566815 58.29074097 78.80029297 C59.13618261 80.96894726 59.98295673 83.13708258 60.83108521 85.3046875 C62.01759755 88.33833896 63.1988856 91.37397487 64.37890625 94.41015625 C64.73223022 95.31020889 65.0855542 96.21026154 65.44958496 97.1375885 C65.77245483 97.97140549 66.09532471 98.80522247 66.42797852 99.66430664 C66.70899918 100.3849379 66.99001984 101.10556915 67.27955627 101.84803772 C68.07009146 104.20936289 68.55868257 106.55144168 69 109 C65.45849107 109.08761663 61.91726367 109.14059739 58.375 109.1875 C57.37597656 109.21263672 56.37695312 109.23777344 55.34765625 109.26367188 C45.02455729 109.36621922 45.02455729 109.36621922 41 106 C39.28753532 102.7673169 38.20066762 99.42608566 37.125 95.9375 C36.81820313 95.01388672 36.51140625 94.09027344 36.1953125 93.13867188 C34 86.4302281 34 86.4302281 34 84 C20.8 84.33 7.6 84.66 -6 85 C-8.17831787 91.44363636 -8.17831787 91.44363636 -10.3371582 97.89379883 C-10.61390381 98.69841553 -10.89064941 99.50303223 -11.17578125 100.33203125 C-11.45333252 101.15421143 -11.73088379 101.9763916 -12.0168457 102.82348633 C-13.06572197 105.14549575 -14.02598349 106.40577875 -16 108 C-19.00015912 109.00005304 -20.97423756 109.11575585 -24.10546875 109.09765625 C-25.08837891 109.09443359 -26.07128906 109.09121094 -27.08398438 109.08789062 C-28.10814453 109.07951172 -29.13230469 109.07113281 -30.1875 109.0625 C-31.22326172 109.05798828 -32.25902344 109.05347656 -33.32617188 109.04882812 C-35.88417266 109.0370401 -38.44205733 109.02058515 -41 109 C-40.38343654 104.1814984 -38.97500687 99.93066144 -37.17578125 95.44921875 C-36.88157791 94.7018898 -36.58737457 93.95456085 -36.28425598 93.18458557 C-35.63922062 91.54764275 -34.99156169 89.9117319 -34.34161377 88.2767334 C-32.54258655 83.75041037 -30.76312116 79.21638482 -28.98046875 74.68359375 C-28.59286377 73.69960602 -28.20525879 72.71561829 -27.8059082 71.70181274 C-22.76281599 58.8847954 -17.81883544 46.02939015 -12.86733627 33.17679214 C-11.17443704 28.78273912 -9.48073326 24.38899629 -7.78678894 19.99534607 C-6.9148481 17.73357625 -6.04325678 15.47167165 -5.17207336 13.20960999 C-4.78287216 12.19974533 -4.39367096 11.18988068 -3.99267578 10.14941406 C-3.65454865 9.27158264 -3.31642151 8.39375122 -2.9680481 7.48931885 C-1.99477631 4.98656737 -0.9973083 2.49327076 0 0 Z M13 26 C11.30739742 31.05306766 9.61677621 36.10679224 7.92797852 41.16113281 C7.35332625 42.88006445 6.7781353 44.59881611 6.20239258 46.31738281 C5.37439167 48.78924057 4.54833731 51.26174152 3.72265625 53.734375 C3.46533218 54.50118591 3.20800812 55.26799683 2.94288635 56.05804443 C1.84243655 59.35904776 0.84457758 62.62168968 0 66 C8.91 66 17.82 66 27 66 C25.28931199 58.30190394 23.17780265 51.00741136 20.68652344 43.55859375 C19.99312066 41.47937175 19.31273464 39.39616382 18.6328125 37.3125 C18.19348662 35.98932467 17.75341035 34.6663982 17.3125 33.34375 C16.91675781 32.14943359 16.52101563 30.95511719 16.11328125 29.72460938 C15.29779446 26.87438902 15.29779446 26.87438902 13 26 Z " fill="#97A55E" transform="translate(998,1135)"/>
<path d="M0 0 C1.12591553 0.00523682 2.25183105 0.01047363 3.41186523 0.01586914 C4.62680664 0.0190918 5.84174805 0.02231445 7.09350586 0.02563477 C8.37290039 0.03401367 9.65229492 0.04239258 10.97045898 0.05102539 C12.2537207 0.05553711 13.53698242 0.06004883 14.85913086 0.06469727 C18.04211921 0.07652994 21.22501661 0.09301471 24.40795898 0.11352539 C24.64138504 0.71881577 24.8748111 1.32410614 25.11531067 1.94773865 C27.40708052 7.89021639 29.69935851 13.83249788 31.99203777 19.77462482 C33.23042938 22.98439498 34.46854982 26.19426929 35.70611572 29.40435791 C41.14568205 43.51380442 46.59700136 57.61826681 52.09936523 71.70336914 C52.983146 73.96904702 53.86685543 76.23475272 54.75048828 78.50048828 C56.01129427 81.73319663 57.27379521 84.96518534 58.54190063 88.19503784 C59.70736462 91.16357171 60.8668445 94.13437872 62.02514648 97.10571289 C62.54384056 98.41891762 62.54384056 98.41891762 63.07301331 99.75865173 C63.53827675 100.95694359 63.53827675 100.95694359 64.01293945 102.17944336 C64.28411591 102.87133759 64.55529236 103.56323181 64.83468628 104.27609253 C65.40795898 106.11352539 65.40795898 106.11352539 65.40795898 109.11352539 C61.8456147 109.20093663 58.28354791 109.25405435 54.72045898 109.30102539 C53.71305664 109.32616211 52.7056543 109.35129883 51.66772461 109.37719727 C42.12084028 109.47172087 42.12084028 109.47172087 38.40795898 106.11352539 C37.18530273 104.23852539 37.18530273 104.23852539 36.34545898 102.11352539 C36.02963867 101.32848633 35.71381836 100.54344727 35.38842773 99.73461914 C35.06487305 98.8696582 34.74131836 98.00469727 34.40795898 97.11352539 C34.0328418 96.13512695 33.65772461 95.15672852 33.27124023 94.14868164 C30.40795898 86.50321837 30.40795898 86.50321837 30.40795898 84.11352539 C17.20795898 84.11352539 4.00795898 84.11352539 -9.59204102 84.11352539 C-10.58204102 87.74352539 -11.57204102 91.37352539 -12.59204102 95.11352539 C-13.21442175 96.96236226 -13.86753828 98.80226855 -14.59204102 100.61352539 C-14.90141602 101.40758789 -15.21079102 102.20165039 -15.52954102 103.01977539 C-17.31391304 106.5360379 -18.84329538 107.86394351 -22.59204102 109.11352539 C-24.29220945 109.19530654 -25.99540399 109.2210204 -27.69750977 109.21118164 C-28.68041992 109.20795898 -29.66333008 109.20473633 -30.67602539 109.20141602 C-31.70018555 109.19303711 -32.7243457 109.1846582 -33.77954102 109.17602539 C-34.81530273 109.17151367 -35.85106445 109.16700195 -36.91821289 109.16235352 C-39.4762166 109.15056548 -42.0340899 109.13325622 -44.59204102 109.11352539 C-42.4811963 101.60819161 -39.87824448 94.37128016 -37.04907227 87.10961914 C-36.60779999 85.96815933 -36.16652771 84.82669952 -35.71188354 83.65065002 C-34.52472355 80.582218 -33.33422868 77.51510888 -32.14193344 74.44866943 C-30.90454945 71.26432109 -29.67107358 68.07845916 -28.43701172 64.89282227 C-26.20231865 59.12618948 -23.96343214 53.36119508 -21.72268009 47.59691429 C-19.74198518 42.50105319 -17.76591613 37.40340813 -15.79066467 32.30543518 C-14.30107204 28.46257359 -12.80886903 24.62073112 -11.31552124 20.77932739 C-10.62633748 19.00590797 -9.93787804 17.23220689 -9.25015259 15.45822144 C-8.30815686 13.02978695 -7.36275895 10.60270749 -6.41625977 8.17602539 C-6.14127655 7.46531387 -5.86629333 6.75460236 -5.58297729 6.02235413 C-3.28220184 0.14375284 -3.28220184 0.14375284 0 0 Z M10.40795898 26.11352539 C7.12868573 33.97586571 4.34455567 41.9693575 1.65795898 50.05102539 C1.24674805 51.26854492 0.83553711 52.48606445 0.41186523 53.74047852 C-0.17014648 55.48554687 -0.17014648 55.48554687 -0.76391602 57.26586914 C-1.29130371 58.84356079 -1.29130371 58.84356079 -1.8293457 60.453125 C-2.72983261 63.13290262 -2.72983261 63.13290262 -2.59204102 66.11352539 C6.31795898 66.11352539 15.22795898 66.11352539 24.40795898 66.11352539 C22.73989626 60.8976412 21.06905656 55.68282516 19.39086914 50.47021484 C18.82082875 48.69666572 18.25245762 46.92257918 17.68579102 45.14794922 C16.87100433 42.59728161 16.05023477 40.04860674 15.22827148 37.50024414 C14.9761087 36.70639816 14.72394592 35.91255219 14.46414185 35.09465027 C13.3839859 31.76309341 12.36240849 29.04519964 10.40795898 26.11352539 Z " fill="#97A55E" transform="translate(1456.592041015625,1134.886474609375)"/>
<path d="M0 0 C2.31460878 1.70283508 4.41297968 3.49135961 6.5078125 5.45703125 C7.14589844 6.05386719 7.78398438 6.65070312 8.44140625 7.265625 C15.85695555 14.93633299 19.22834632 24.53097733 19.6328125 35.09765625 C19.13809342 48.39323142 14.79368343 58.77572225 5.0703125 67.89453125 C-5.30839229 76.49654251 -16.22246467 78.40058942 -29.4921875 77.45703125 C-41.17688387 75.49861031 -50.59900474 68.94475274 -57.4921875 59.45703125 C-64.18231304 48.93668116 -65.69500368 37.65275525 -63.4921875 25.45703125 C-60.28334279 13.88792298 -53.03363819 4.85899791 -42.78125 -1.359375 C-29.67606828 -8.13560377 -12.60268705 -7.80260405 0 0 Z " fill="#3E6D72" transform="translate(1022.4921875,668.54296875)"/>
<path d="M0 0 C4.0830942 -0.11614929 8.16576377 -0.18723457 12.25 -0.25 C13.40886719 -0.28351563 14.56773438 -0.31703125 15.76171875 -0.3515625 C16.87675781 -0.36445312 17.99179688 -0.37734375 19.140625 -0.390625 C20.16704102 -0.41157227 21.19345703 -0.43251953 22.25097656 -0.45410156 C25.75829501 0.1252601 26.83421796 1.23024271 29 4 C30.04223633 5.99072266 30.04223633 5.99072266 30.83203125 8.1640625 C31.30660767 9.44627686 31.30660767 9.44627686 31.79077148 10.75439453 C32.12794189 11.70169434 32.4651123 12.64899414 32.8125 13.625 C33.17996338 14.63030762 33.54742676 15.63561523 33.92602539 16.67138672 C35.02984902 19.70530339 36.12129087 22.74339437 37.20739746 25.78369141 C38.08520228 28.2382462 38.96668717 30.69146131 39.84863281 33.14453125 C43.19260253 42.44828428 46.52510642 51.75610241 49.83984375 61.0703125 C50.12908722 61.88197876 50.41833069 62.69364502 50.71633911 63.52990723 C52.18863648 67.67272729 53.62722855 71.82279889 55 76 C55.38200562 74.86800171 55.38200562 74.86800171 55.77172852 73.71313477 C61.34630674 57.24016391 67.05133944 40.8117378 72.94528198 24.45016479 C73.60597706 22.61057008 74.26218064 20.76935595 74.91384888 18.92654419 C75.83508421 16.32526922 76.7727686 13.73050685 77.71484375 11.13671875 C77.98743011 10.35684601 78.26001648 9.57697327 78.54086304 8.77346802 C81.10436744 1.82039727 81.10436744 1.82039727 85 0 C87.74902344 -0.34057617 87.74902344 -0.34057617 90.859375 -0.29296875 C91.97441406 -0.28330078 93.08945313 -0.27363281 94.23828125 -0.26367188 C95.39714844 -0.23853516 96.55601563 -0.21339844 97.75 -0.1875 C98.92433594 -0.17396484 100.09867188 -0.16042969 101.30859375 -0.14648438 C104.20619298 -0.1111478 107.10286427 -0.06180979 110 0 C107.91671035 6.51087163 105.53893433 12.86083151 102.98754883 19.20141602 C102.59696793 20.17808731 102.20638702 21.15475861 101.80397034 22.161026 C100.52410945 25.35964085 99.24060051 28.55677795 97.95703125 31.75390625 C97.06428275 33.9829772 96.17176398 36.21214017 95.27946472 38.44139099 C92.93910889 44.28657451 90.59564812 50.13050824 88.25152588 55.97418213 C85.85655284 61.94622521 83.46453591 67.91945199 81.07226562 73.89257812 C76.38439319 85.59620916 71.69296507 97.2984101 67 109 C59.08 109 51.16 109 43 109 C34.06308552 87.61918641 25.40424961 66.13348177 16.85009766 44.59692383 C15.07184402 40.12027188 13.28847333 35.64567618 11.50394821 31.17152119 C10.11704491 27.69220357 8.73325255 24.21165523 7.35037994 20.73073387 C6.69278545 19.07683383 6.03409902 17.42336751 5.37429047 15.7703495 C4.46469558 13.49051116 3.5594193 11.2090057 2.65527344 8.92700195 C2.38425308 8.2503952 2.11323273 7.57378845 1.83399963 6.87667847 C0 2.22839944 0 2.22839944 0 0 Z " fill="#97A55E" transform="translate(1303,1135)"/>
<path d="M0 0 C0.57105469 0.38671875 1.14210938 0.7734375 1.73046875 1.171875 C1.13079575 5.27963506 -0.24125795 8.31388884 -2.26953125 11.921875 C-2.80578125 12.88609375 -3.34203125 13.8503125 -3.89453125 14.84375 C-5.26953125 17.171875 -5.26953125 17.171875 -6.26953125 18.171875 C-11.20928625 18.81619087 -14.11442475 17.93332458 -18.58203125 15.734375 C-24.35465323 12.95496441 -29.97708756 11.12261099 -36.37890625 12.6875 C-39.78725292 14.01140325 -41.21936435 15.09662464 -43.26953125 18.171875 C-43.86151973 23.07868288 -43.86151973 23.07868288 -41.60546875 27.24609375 C-38.97663763 29.41334081 -36.72344477 30.40029681 -33.51953125 31.546875 C-32.37355469 31.97226563 -31.22757812 32.39765625 -30.046875 32.8359375 C-27.44784717 33.76920297 -24.83479994 34.64714065 -22.2109375 35.5078125 C-12.52737392 38.76582319 -4.06387785 42.46720497 1.22265625 51.80859375 C5.33919978 61.7592731 4.46250351 71.05717882 1.046875 81.08984375 C-2.68973104 89.83815878 -8.63719256 95.31329381 -17.26953125 99.171875 C-30.8637269 104.08813206 -45.24420007 103.33513902 -58.54296875 97.8125 C-64.05528213 95.17203384 -68.82285006 92.37151834 -73.26953125 88.171875 C-71.88889559 84.31442059 -70.09136227 81.24699634 -67.70703125 77.921875 C-67.08699219 77.05046875 -66.46695312 76.1790625 -65.828125 75.28125 C-64.26953125 73.171875 -64.26953125 73.171875 -63.26953125 72.171875 C-57.05134108 71.24576157 -53.79573049 73.39633594 -48.609375 76.703125 C-42.78438558 80.35954574 -37.00231366 80.89324454 -30.26953125 80.171875 C-26.15677216 78.62959034 -24.71172187 77.83516093 -22.26953125 74.171875 C-21.80478258 72.06504052 -21.80478258 72.06504052 -21.76953125 69.796875 C-21.71796875 69.04664063 -21.66640625 68.29640625 -21.61328125 67.5234375 C-22.66226146 63.76459175 -25.02190337 62.04766652 -28.26953125 60.171875 C-33.57692803 58.02751925 -39.05921025 56.41575508 -44.52929688 54.7421875 C-52.90891957 52.03440405 -59.90899108 48.78584245 -65.20703125 41.51171875 C-68.95963089 33.02698059 -68.95963089 33.02698059 -69.26953125 28.171875 C-69.31980469 27.50800781 -69.37007813 26.84414062 -69.421875 26.16015625 C-69.802543 17.43524565 -67.56339046 9.76195875 -61.98828125 2.984375 C-45.53268884 -14.36879518 -18.87050368 -12.12032351 0 0 Z " fill="#3E6D72" transform="translate(433.26953125,1142.828125)"/>
<path d="M0 0 C2.48565256 1.94549233 4.23891117 4.13777551 6.12109375 6.66015625 C4.66471704 8.61997182 3.20609223 10.57804172 1.74609375 12.53515625 C1.33359375 13.09074219 0.92109375 13.64632813 0.49609375 14.21875 C-1.20436355 16.49516865 -2.86681815 18.64806815 -4.87890625 20.66015625 C-9.75994112 21.20866515 -12.69273554 20.05257245 -16.94140625 17.72265625 C-25.11635027 13.2722041 -31.7390477 13.23447094 -40.87890625 14.66015625 C-49.47115884 17.41461043 -54.84466065 23.82724144 -58.87890625 31.66015625 C-63.0575351 43.00214884 -61.8598268 55.79716176 -56.87890625 66.66015625 C-53.30525674 73.79431685 -47.30255907 77.18560531 -39.87890625 79.66015625 C-30.75425441 80.26305574 -22.57279032 80.57172631 -15.25390625 74.47265625 C-12.87890625 72.66015625 -12.87890625 72.66015625 -9.87890625 72.16015625 C-4.06205437 73.12963156 -0.75114538 77.72472468 3.08203125 81.87890625 C4.12109375 83.66015625 4.12109375 83.66015625 4.02734375 85.6328125 C0.9048746 92.61799132 -7.32396011 96.91854406 -14.07421875 99.6953125 C-29.43354673 104.97909246 -47.38317112 104.25229341 -62.05078125 97.1171875 C-76.39995202 88.45615487 -83.82736791 76.71782393 -87.87890625 60.66015625 C-91.23188168 45.01293759 -88.47376077 28.15034096 -79.87890625 14.66015625 C-60.83871935 -10.23312515 -26.79289385 -16.22031854 0 0 Z " fill="#97A55E" transform="translate(935.87890625,1142.33984375)"/>
<path d="M0 0 C8.91 0 17.82 0 27 0 C27 29.04 27 58.08 27 88 C39.87 88 52.74 88 66 88 C66 94.93 66 101.86 66 109 C44.22 109 22.44 109 0 109 C0 73.03 0 37.06 0 0 Z " fill="#3E6D72" transform="translate(718,1135)"/>
<path d="M0 0 C10 0 10 0 12.26953125 1.37109375 C13.03330078 2.39396484 13.03330078 2.39396484 13.8125 3.4375 C14.4415625 4.24445313 15.070625 5.05140625 15.71875 5.8828125 C16.4715625 6.91148438 17.224375 7.94015625 18 9 C19.0903076 10.41671844 20.18435731 11.8305614 21.28125 13.2421875 C25.57575161 18.78714518 29.79196555 24.38928739 34 30 C34.33 20.1 34.66 10.2 35 0 C38.96 0 42.92 0 47 0 C47 17.82 47 35.64 47 54 C37.68553459 54 37.68553459 54 34 51 C31.7109375 48.35546875 31.7109375 48.35546875 29.375 45.1875 C28.51132997 44.03056764 27.64670957 42.87434428 26.78125 41.71875 C26.33265625 41.11546875 25.8840625 40.5121875 25.421875 39.890625 C22.95860535 36.61528843 20.41452261 33.40382216 17.875 30.1875 C15.461875 27.1246875 15.461875 27.1246875 13 24 C12.67 33.9 12.34 43.8 12 54 C8.04 54 4.08 54 0 54 C0 36.18 0 18.36 0 0 Z " fill="#3E6D72" transform="translate(869,1283)"/>
<path d="M0 0 C6.95898333 4.68894064 10.38987741 10.16963224 13 18 C13.79819687 27.32974371 13.12683759 35.30781022 7.52734375 43.03125 C2.35090549 48.80732296 -3.74918229 51.52660239 -11.40234375 52.37890625 C-20.83917288 52.69654111 -28.65344563 51.28880363 -35.875 44.9375 C-41.73463178 38.44065058 -43.7034193 30.21691453 -43.3125 21.62890625 C-42.33580115 13.41242717 -39.25959722 7.48956741 -33 2 C-23.30585957 -4.25778468 -10.3769967 -5.44937257 0 0 Z M-24 11 C-29.06286819 16.61020529 -29.35123158 20.29282487 -29.27734375 27.72265625 C-28.8849479 32.35955936 -27.96159093 34.41491624 -25 38 C-20.62511425 41.08230587 -16.25492197 41.90287269 -11 41 C-7.21409018 39.66512741 -4.58173789 37.7318638 -2.0625 34.5625 C-0.31429611 28.70087518 0.39283977 21.78566706 -1.76171875 15.9296875 C-2.83135038 14.13773532 -2.83135038 14.13773532 -5 12 C-5.556875 11.401875 -6.11375 10.80375 -6.6875 10.1875 C-12.5991988 7.15176278 -18.50417455 7.16570318 -24 11 Z " fill="#3E6D72" transform="translate(740,1285)"/>
<path d="M0 0 C5.64978612 4.39136508 8.79115058 10.41334598 10.02734375 17.3984375 C10.83184137 26.12088542 9.19293745 33.53220453 4.25 40.8125 C-0.78391105 46.61803245 -6.67388893 49.44686877 -14.27734375 50.12890625 C-24.0097025 50.43030797 -29.98246282 48.92973585 -38 43.6875 C-44.56268373 36.82651247 -46.44041412 30.03009251 -46.27563477 20.65185547 C-45.90789576 13.38533272 -44.01841616 8.4987823 -39.375 3 C-27.60501429 -6.80832143 -13.11253155 -8.36489081 0 0 Z M-27.75 8.8125 C-31.93579668 13.98966958 -33.12172379 18.03611026 -33.03515625 24.65234375 C-32.40423611 29.4317799 -30.17427258 33.47454697 -26.6875 36.75 C-22.64419559 38.96729597 -19.29689598 39.12076413 -14.75 38.8125 C-10.07962719 37.07255719 -7.48837707 34.97077629 -4.75 30.8125 C-2.92946269 24.92609603 -2.85771004 19.05366141 -5.5 13.4375 C-7.22169569 10.44091545 -8.53094639 8.29152463 -11.75 6.8125 C-17.7983739 5.31805742 -22.28344107 5.48968967 -27.75 8.8125 Z " fill="#3E6D72" transform="translate(1278.75,1287.1875)"/>
<path d="M0 0 C10 0 10 0 12.77734375 2.1328125 C13.49019531 3.12023438 14.20304687 4.10765625 14.9375 5.125 C15.53510132 5.92067383 15.53510132 5.92067383 16.14477539 6.73242188 C16.99927417 7.87153308 17.84135203 9.02004951 18.671875 10.17675781 C20.53102033 12.72898159 22.5012623 15.18689069 24.46899414 17.65576172 C27.70840547 21.72400996 30.87960162 25.83946882 34 30 C34.33 20.1 34.66 10.2 35 0 C38.96 0 42.92 0 47 0 C47 17.82 47 35.64 47 54 C37.66194332 54 37.66194332 54 34 51 C31.96228835 48.81214118 30.1332391 46.49477025 28.3125 44.125 C27.79719727 43.46749756 27.28189453 42.80999512 26.75097656 42.13256836 C25.15826079 40.09523165 23.57792757 38.04880431 22 36 C20.99878494 34.70696386 19.99748592 33.41399273 18.99609375 32.12109375 C16.6512351 29.09023687 14.32665 26.04517427 12 23 C11.67 33.23 11.34 43.46 11 54 C7.37 54 3.74 54 0 54 C0 36.18 0 18.36 0 0 Z " fill="#3E6D72" transform="translate(1323,1283)"/>
<path d="M0 0 C6.8990625 -0.12375 6.8990625 -0.12375 13.9375 -0.25 C16.08560181 -0.30462402 16.08560181 -0.30462402 18.27709961 -0.36035156 C27.31928404 -0.43855697 33.13731186 1.01607773 40.75 5.6875 C46.53724601 11.63550284 49.08892184 18.5350138 49.25 26.75 C49.13665129 34.37836841 47.1315416 40.78880826 41.87109375 46.4296875 C29.72612749 56.62233142 15.43962035 54 0 54 C0 36.18 0 18.36 0 0 Z M13 10 C13 20.89 13 31.78 13 43 C24.25683946 44.02899151 24.25683946 44.02899151 30 40 C34.77976308 34.68915214 35.29723365 30.66562289 35.21484375 23.7265625 C34.82323084 18.75663871 33.0994346 16.01697701 29.5 12.6875 C23.71315358 8.78137866 21.12871313 10 13 10 Z " fill="#3E6D72" transform="translate(953,1283)"/>
<path d="M0 0 C4.62 0 9.24 0 14 0 C14.01458252 1.09989258 14.02916504 2.19978516 14.04418945 3.33300781 C14.1022147 7.41846023 14.17944706 11.50336391 14.26245117 15.58837891 C14.29568069 17.35554083 14.32371882 19.12280839 14.34643555 20.89013672 C14.38001831 23.43242351 14.43233451 25.97374408 14.48828125 28.515625 C14.49467117 29.30430969 14.5010611 30.09299438 14.50764465 30.90557861 C14.59376323 34.12712744 14.78640543 36.59068115 16.28979492 39.47167969 C19.09424503 41.97786922 22.38206126 42.19747034 26 42 C28.99795835 40.66048669 30.52779875 39.9444025 32 37 C32.15691907 34.23068632 32.25843134 31.48265893 32.31640625 28.7109375 C32.33718735 27.89251373 32.35796844 27.07408997 32.37937927 26.23086548 C32.44484812 23.61233034 32.50374726 20.99369361 32.5625 18.375 C32.60568776 16.60155193 32.64930214 14.82811419 32.69335938 13.0546875 C32.80052676 8.70322954 32.90180169 4.35166923 33 0 C37.62 0 42.24 0 47 0 C47.07461471 4.98043609 47.12881987 9.96054089 47.16479492 14.94140625 C47.17980505 16.63287022 47.20021963 18.32429578 47.22631836 20.015625 C47.26304686 22.45843024 47.27980411 24.9007173 47.29296875 27.34375 C47.30845261 28.08991577 47.32393646 28.83608154 47.33988953 29.6048584 C47.34231246 37.3052685 45.02894067 43.84225363 39.7109375 49.5234375 C34.03241576 54.42407955 27.35166488 54.4906389 20.1171875 54.2734375 C12.44332484 53.60029165 8.49378442 51.10451613 3.4453125 45.328125 C-0.03937993 39.71494475 -0.28312429 33.83277652 -0.1953125 27.44140625 C-0.1924826 26.65225327 -0.18965271 25.86310028 -0.18673706 25.05003357 C-0.17563057 22.55402828 -0.15054455 20.05839502 -0.125 17.5625 C-0.11495785 15.86003126 -0.10583417 14.15755684 -0.09765625 12.45507812 C-0.0757226 8.30324424 -0.04125977 4.15168498 0 0 Z " fill="#3E6D72" transform="translate(786,1283)"/>
<path d="M0 0 C4.95 0 9.9 0 15 0 C17.69281592 6.88476837 20.38025614 13.7716014 23.06274414 20.66040039 C23.97598312 23.00342358 24.89068645 25.34587656 25.80688477 27.68774414 C27.12381545 31.05466124 28.43546031 34.42359618 29.74609375 37.79296875 C30.36175453 39.36198189 30.36175453 39.36198189 30.98985291 40.96269226 C31.37017166 41.94333145 31.75049042 42.92397064 32.14233398 43.93432617 C32.47764633 44.79370285 32.81295868 45.65307953 33.15843201 46.53849792 C34.0042238 49.0123542 34.54771459 51.42764132 35 54 C33.06318839 54.08107583 31.1254066 54.13922475 29.1875 54.1875 C28.10855469 54.22230469 27.02960938 54.25710938 25.91796875 54.29296875 C23 54 23 54 20 51 C19.01 48.36 18.02 45.72 17 43 C10.73 43 4.46 43 -2 43 C-2.61875 44.629375 -3.2375 46.25875 -3.875 47.9375 C-5.75 52.875 -5.75 52.875 -8 54 C-10.04055005 54.07065617 -12.08334257 54.08421976 -14.125 54.0625 C-15.22070312 54.05347656 -16.31640625 54.04445313 -17.4453125 54.03515625 C-18.28835938 54.02355469 -19.13140625 54.01195312 -20 54 C-18.07560513 47.23862323 -15.83236812 40.69346826 -13.2421875 34.16015625 C-12.8936673 33.2713829 -12.54514709 32.38260956 -12.18606567 31.46690369 C-11.08611504 28.66394942 -9.98077237 25.86316201 -8.875 23.0625 C-7.76322869 20.23640716 -6.65257393 17.40987889 -5.54251099 14.58311462 C-4.8548469 12.83308474 -4.16598882 11.08352344 -3.47579956 9.33448792 C-3.16522614 8.54614059 -2.85465271 7.75779327 -2.53466797 6.94555664 C-2.12521439 5.90825157 -2.12521439 5.90825157 -1.70748901 4.84999084 C-1.09527589 3.24913393 -0.54199149 1.62597447 0 0 Z M7 14 C6.16112944 16.43572059 5.32873471 18.87333217 4.5 21.3125 C4.26152344 22.00279297 4.02304688 22.69308594 3.77734375 23.40429688 C2.76791737 26.38931489 2 28.82658914 2 32 C5.96 32 9.92 32 14 32 C12.02 26.06 10.04 20.12 8 14 C7.67 14 7.34 14 7 14 Z " fill="#3E6D72" transform="translate(1049,1283)"/>
<path d="M0 0 C11.55 0 23.1 0 35 0 C35 3.3 35 6.6 35 10 C28.07 10 21.14 10 14 10 C14 14.29 14 18.58 14 23 C19.94 23 25.88 23 32 23 C32 26.3 32 29.6 32 33 C26.06 33 20.12 33 14 33 C14 39.93 14 46.86 14 54 C9.38 54 4.76 54 0 54 C0 36.18 0 18.36 0 0 Z " fill="#3E6D72" transform="translate(630,1283)"/>
<path d="M0 0 C14.19 0 28.38 0 43 0 C43 3.3 43 6.6 43 10 C38.05 10 33.1 10 28 10 C28 24.52 28 39.04 28 54 C23.71 54 19.42 54 15 54 C15 39.48 15 24.96 15 10 C10.05 10 5.1 10 0 10 C0 6.7 0 3.4 0 0 Z " fill="#3E6D72" transform="translate(1107,1283)"/>
<path d="M0 0 C4.29 0 8.58 0 13 0 C13 17.82 13 35.64 13 54 C8.71 54 4.42 54 0 54 C0 36.18 0 18.36 0 0 Z " fill="#3E6D72" transform="translate(1184,1283)"/>
</svg>
