<?xml version="1.0" encoding="utf-8"?>
<!-- Generator: Adobe Illustrator 25.2.0, SVG Export Plug-In . SVG Version: 6.00 Build 0)  -->
<svg version="1.1" id="Layer_1" xmlns="http://www.w3.org/2000/svg" xmlns:xlink="http://www.w3.org/1999/xlink" x="0px" y="0px"
	 viewBox="0 0 2000 2000" style="enable-background:new 0 0 2000 2000;" xml:space="preserve">
<style type="text/css">
	.st0{fill:#3E6D72;}
	.st1{fill:#97A55E;}
	.st2{fill:#FFFFFF;}
	.st3{fill:#3E6D73;}
</style>
<g>
	<g>
		<path class="st2" d="M917.22,778.82c10.7,0.7,20.63,5.81,28.21,13.39l31.14,31.13c6.96,6.96,16.47,10.44,26.43,9.56
			c8.08-0.71,15.52-4.7,21.26-10.43l31.31-31.31c17.24-17.24,45.74-16.53,62.05,2.13c14.87,17.01,12.93,43.01-3.05,58.99
			l-28.58,28.58l0,0c16.07,16.07,42.13,16.06,58.2-0.01l0.53-0.53c33.59-33.59,32.58-88.89-3.05-121.16
			c-33.33-30.19-85.12-27.18-116.92,4.61l-24.78,24.78l-26.49-26.49c-33.59-33.59-88.89-32.57-121.17,3.05
			c-30.2,33.33-27.18,85.12,4.62,116.92l83.91,83.9c17.24,17.24,16.53,45.74-2.13,62.06c-17.01,14.87-43.02,12.93-59-3.05
			l-62.51-62.51c-16.07-16.07-42.13-16.07-58.2,0l92.67,92.67c16.3,16.3,37.71,24.46,59.13,24.46c21.68,0,43.35-8.35,59.72-25.06
			c32.35-33,30.54-86.53-2.14-119.21l-82.91-82.91c-16.82-16.82-17.94-44.58-1.05-61.34C893.12,782.44,904.87,778.02,917.22,778.82z
			"/>
		<path class="st1" d="M1182.79,962.44l-63.58,63.58c-17.24,17.24-45.74,16.53-62.06-2.13c-14.87-17.01-12.93-43.02,3.06-59
			l42.39-42.39c-16.07-16.07-42.13-16.07-58.2,0l-12.81,12.8c-32.68,32.68-34.5,86.21-2.15,119.21
			c16.37,16.7,38.05,25.06,59.72,25.06c21.42,0,42.83-8.15,59.13-24.46l92.67-92.67C1224.92,946.37,1198.86,946.37,1182.79,962.44z"
			/>
		<path class="st2" d="M1000,745.47c22.69,0,41.08-18.39,41.08-41.08c0-22.69-18.39-41.08-41.08-41.08
			c-22.69,0-41.08,18.39-41.08,41.08C958.92,727.08,977.31,745.47,1000,745.47z"/>
	</g>
	<g>
		<g>
			<path class="st2" d="M428.59,1157.23c-0.74,1.19-1.53,2.08-2.33,2.67c-0.82,0.59-1.86,0.89-3.16,0.89
				c-1.13,0-2.35-0.37-3.66-1.07c-1.31-0.72-2.79-1.53-4.43-2.4c-1.66-0.89-3.54-1.7-5.66-2.42c-2.13-0.71-4.55-1.07-7.25-1.07
				c-4.68,0-8.18,1.01-10.48,3.01c-2.28,2-3.44,4.7-3.44,8.09c0,2.18,0.69,3.98,2.08,5.41c1.38,1.43,3.19,2.67,5.44,3.71
				c2.23,1.02,4.8,1.98,7.69,2.84c2.89,0.87,5.83,1.83,8.85,2.89c3.01,1.06,5.94,2.32,8.83,3.74c2.89,1.43,5.46,3.26,7.71,5.47
				c2.23,2.22,4.05,4.92,5.44,8.09c1.38,3.19,2.07,7.02,2.07,11.52c0,4.99-0.86,9.64-2.59,13.99c-1.73,4.33-4.23,8.13-7.52,11.35
				c-3.27,3.24-7.32,5.78-12.12,7.62c-4.82,1.85-10.28,2.79-16.41,2.79c-3.34,0-6.77-0.35-10.24-1.04
				c-3.48-0.69-6.85-1.66-10.11-2.92s-6.31-2.75-9.17-4.48c-2.87-1.73-5.36-3.64-7.47-5.78l7.39-11.69c0.55-0.89,1.31-1.6,2.3-2.15
				c0.99-0.54,2.05-0.81,3.19-0.81c1.48,0,2.97,0.47,4.47,1.39c1.51,0.94,3.21,1.98,5.1,3.12c1.9,1.12,4.08,2.17,6.55,3.11
				c2.47,0.92,5.39,1.39,8.73,1.39c4.55,0,8.08-0.99,10.6-2.99c2.52-2,3.76-5.17,3.76-9.5c0-2.52-0.69-4.57-2.07-6.15
				s-3.19-2.89-5.44-3.93s-4.8-1.95-7.66-2.74c-2.85-0.79-5.79-1.66-8.82-2.62c-3.01-0.97-5.94-2.15-8.8-3.56s-5.41-3.26-7.66-5.56
				c-2.25-2.28-4.06-5.16-5.44-8.58c-1.38-3.43-2.07-7.66-2.07-12.69c0-4.03,0.81-7.99,2.43-11.84s4.01-7.27,7.17-10.28
				c3.16-3.02,7.04-5.42,11.62-7.22c4.6-1.8,9.86-2.7,15.77-2.7c3.31,0,6.53,0.25,9.66,0.77c3.14,0.52,6.11,1.29,8.92,2.3
				c2.82,1.01,5.44,2.22,7.89,3.63c2.43,1.41,4.62,2.99,6.55,4.77L428.59,1157.23z"/>
			<path class="st2" d="M569.94,1189.2c0,7.79-1.34,15.05-4.05,21.76c-2.69,6.7-6.46,12.54-11.35,17.5
				c-4.89,4.95-10.76,8.85-17.65,11.65c-6.88,2.82-14.53,4.23-22.9,4.23c-8.4,0-16.04-1.41-22.95-4.23
				c-6.9-2.8-12.81-6.7-17.72-11.65c-4.92-4.95-8.72-10.8-11.4-17.5c-2.69-6.72-4.03-13.97-4.03-21.76c0-7.79,1.34-15.05,4.03-21.76
				c2.69-6.7,6.48-12.53,11.4-17.46c4.9-4.94,10.81-8.8,17.72-11.62c6.92-2.8,14.56-4.21,22.95-4.21c8.38,0,16.02,1.43,22.9,4.25
				c6.88,2.84,12.76,6.73,17.65,11.67c4.89,4.92,8.66,10.75,11.35,17.46C568.6,1174.22,569.94,1181.46,569.94,1189.2z
				 M544.34,1189.2c0-5.32-0.71-10.13-2.08-14.39c-1.38-4.27-3.36-7.89-5.96-10.85c-2.59-2.96-5.76-5.22-9.5-6.8
				c-3.74-1.58-8.01-2.37-12.8-2.37c-4.84,0-9.15,0.79-12.91,2.37c-3.78,1.58-6.97,3.85-9.55,6.8c-2.59,2.96-4.58,6.58-5.96,10.85
				c-1.38,4.27-2.07,9.07-2.07,14.39c0,5.37,0.69,10.21,2.07,14.47c1.38,4.27,3.38,7.88,5.96,10.83c2.59,2.97,5.78,5.22,9.55,6.78
				c3.76,1.54,8.08,2.32,12.91,2.32c4.79,0,9.05-0.77,12.8-2.32c3.74-1.56,6.92-3.81,9.5-6.78c2.6-2.96,4.58-6.57,5.96-10.83
				C543.63,1199.41,544.34,1194.57,544.34,1189.2z"/>
			<path class="st2" d="M641.58,1223.39c3.34,0,6.35-0.55,8.98-1.66c2.64-1.11,4.87-2.7,6.7-4.77c1.83-2.08,3.22-4.6,4.18-7.59
				c0.96-2.99,1.44-6.38,1.44-10.18v-63.86h25.02v63.86c0,6.62-1.07,12.68-3.22,18.2s-5.22,10.29-9.22,14.29
				c-4,4-8.85,7.1-14.58,9.32s-12.16,3.34-19.31,3.34c-7.2,0-13.67-1.13-19.39-3.34s-10.58-5.32-14.58-9.32
				c-4-4-7.05-8.77-9.19-14.29c-2.12-5.52-3.17-11.59-3.17-18.2v-63.86h25v63.79c0,3.8,0.49,7.19,1.44,10.18
				c0.97,2.97,2.37,5.52,4.18,7.62c1.83,2.1,4.06,3.69,6.7,4.8S638.22,1223.39,641.58,1223.39z"/>
			<path class="st2" d="M744.01,1223.17h39.97v19.98h-64.99v-107.82h25.02V1223.17z"/>
			<path class="st1" d="M926.44,1215.24c0.59,0,1.18,0.12,1.76,0.34c0.6,0.22,1.16,0.6,1.71,1.16l9.91,10.43
				c-4.33,5.68-9.77,9.96-16.31,12.85c-6.55,2.89-14.27,4.33-23.21,4.33c-8.19,0-15.53-1.39-22.01-4.18
				c-6.5-2.79-11.99-6.65-16.51-11.55s-7.98-10.73-10.39-17.46c-2.42-6.73-3.63-14.06-3.63-21.95c0-8.04,1.38-15.43,4.13-22.17
				c2.77-6.73,6.63-12.54,11.59-17.43c4.97-4.89,10.9-8.68,17.8-11.4c6.92-2.7,14.53-4.06,22.87-4.06c4.05,0,7.86,0.35,11.44,1.07
				c3.58,0.72,6.92,1.7,10.02,2.96c3.11,1.26,5.98,2.77,8.58,4.52c2.62,1.75,4.94,3.69,6.97,5.81l-8.45,11.32
				c-0.54,0.71-1.18,1.33-1.91,1.9c-0.74,0.57-1.78,0.84-3.11,0.84c-0.89,0-1.73-0.18-2.52-0.59c-0.79-0.39-1.63-0.87-2.52-1.44
				c-0.89-0.57-1.86-1.18-2.92-1.85c-1.06-0.67-2.32-1.28-3.78-1.85c-1.46-0.57-3.16-1.06-5.1-1.44c-1.95-0.4-4.23-0.59-6.85-0.59
				c-4.53,0-8.68,0.79-12.43,2.4c-3.76,1.6-6.97,3.9-9.66,6.88c-2.7,2.99-4.79,6.6-6.3,10.83c-1.51,4.25-2.25,9.02-2.25,14.29
				c0,5.52,0.74,10.43,2.25,14.73c1.51,4.3,3.56,7.91,6.15,10.85s5.61,5.17,9.07,6.7c3.44,1.53,7.15,2.28,11.1,2.28
				c2.27,0,4.33-0.1,6.21-0.34c1.88-0.22,3.61-0.59,5.22-1.14c1.6-0.54,3.12-1.24,4.58-2.1c1.46-0.87,2.92-1.95,4.4-3.22
				c0.59-0.5,1.24-0.91,1.93-1.23C924.98,1215.41,925.7,1215.24,926.44,1215.24z"/>
			<path class="st1" d="M1066.39,1243.15h-19.4c-2.17,0-3.95-0.5-5.36-1.51c-1.41-1.02-2.38-2.32-2.92-3.9l-6.36-18.79h-41.01
				l-6.36,18.79c-0.49,1.39-1.46,2.64-2.89,3.74c-1.43,1.11-3.17,1.66-5.26,1.66h-19.53l41.75-107.82h25.59L1066.39,1243.15z
				 M997.12,1201.93h29.45l-9.92-29.52c-0.64-1.88-1.39-4.08-2.25-6.63c-0.86-2.54-1.71-5.29-2.55-8.24
				c-0.79,3.01-1.61,5.79-2.43,8.36c-0.84,2.57-1.63,4.79-2.37,6.65L997.12,1201.93z"/>
			<path class="st1" d="M1114.95,1203.25v39.9h-25.02v-107.82h35.08c7.79,0,14.44,0.79,19.95,2.4c5.49,1.6,9.99,3.83,13.47,6.7
				c3.48,2.85,6.01,6.23,7.59,10.13c1.58,3.91,2.37,8.14,2.37,12.73c0,3.51-0.47,6.82-1.41,9.92c-0.94,3.11-2.33,5.98-4.18,8.63
				c-1.85,2.64-4.11,4.99-6.82,7.05c-2.69,2.08-5.78,3.78-9.29,5.12c1.68,0.84,3.24,1.86,4.7,3.11c1.46,1.23,2.72,2.74,3.81,4.5
				l22.94,37.53h-22.64c-4.2,0-7.2-1.58-9.03-4.74l-17.92-31.3c-0.79-1.39-1.71-2.37-2.77-2.97c-1.06-0.59-2.55-0.89-4.47-0.89
				H1114.95z M1114.95,1186.02h10.06c3.41,0,6.3-0.44,8.7-1.31c2.38-0.86,4.35-2.05,5.88-3.58s2.64-3.32,3.34-5.37
				c0.69-2.05,1.02-4.25,1.02-6.62c0-4.74-1.54-8.45-4.62-11.1c-3.09-2.67-7.86-4-14.32-4h-10.06V1186.02z"/>
			<path class="st1" d="M1303.51,1243.15h-19.39c-2.17,0-3.95-0.5-5.36-1.51c-1.41-1.02-2.38-2.32-2.92-3.9l-6.36-18.79h-41.01
				l-6.36,18.79c-0.49,1.39-1.46,2.64-2.89,3.74c-1.43,1.11-3.17,1.66-5.26,1.66h-19.53l41.75-107.82h25.59L1303.51,1243.15z
				 M1234.24,1201.93h29.45l-9.92-29.52c-0.64-1.88-1.39-4.08-2.25-6.63c-0.86-2.54-1.71-5.29-2.55-8.24
				c-0.79,3.01-1.61,5.79-2.43,8.36c-0.84,2.57-1.63,4.79-2.37,6.65L1234.24,1201.93z"/>
			<path class="st1" d="M1303.36,1135.33h20.13c2.17,0,3.95,0.49,5.32,1.48c1.38,0.97,2.37,2.28,2.96,3.91l20.87,57.73
				c0.94,2.52,1.9,5.26,2.85,8.21s1.86,6.08,2.7,9.34c0.69-3.26,1.49-6.38,2.4-9.34s1.81-5.69,2.7-8.21l20.72-57.73
				c0.49-1.38,1.46-2.62,2.89-3.73c1.43-1.11,3.17-1.66,5.26-1.66h20.27l-43.21,107.82h-22.65L1303.36,1135.33z"/>
			<path class="st1" d="M1521.67,1243.15h-19.39c-2.17,0-3.95-0.5-5.36-1.51c-1.41-1.02-2.38-2.32-2.92-3.9l-6.36-18.79h-41.01
				l-6.36,18.79c-0.49,1.39-1.46,2.64-2.89,3.74c-1.43,1.11-3.17,1.66-5.26,1.66h-19.53l41.75-107.82h25.59L1521.67,1243.15z
				 M1452.41,1201.93h29.45l-9.92-29.52c-0.64-1.88-1.39-4.08-2.25-6.63c-0.86-2.54-1.71-5.29-2.55-8.24
				c-0.79,3.01-1.61,5.79-2.43,8.36c-0.84,2.57-1.63,4.79-2.37,6.65L1452.41,1201.93z"/>
			<path class="st1" d="M1561.12,1135.46c0.76,0.1,1.41,0.29,2,0.55c0.6,0.29,1.16,0.65,1.71,1.16c0.54,0.49,1.16,1.16,1.85,2
				l51.22,64.75c-0.2-2.07-0.35-4.08-0.45-6.03c-0.1-1.95-0.13-3.8-0.13-5.51v-57.06h22.05v107.82h-13.03
				c-1.91,0-3.54-0.3-4.89-0.89c-1.33-0.59-2.6-1.68-3.85-3.26l-50.85-64.23c0.15,1.86,0.29,3.71,0.37,5.51
				c0.1,1.8,0.15,3.49,0.15,5.07v57.8h-22.05v-107.82h13.17C1559.47,1135.33,1560.38,1135.38,1561.12,1135.46z"/>
		</g>
		<g>
			<path class="st2" d="M664.85,1283.17v9.45h-21.74v13.41h18.1v9.48h-18.1v20.6h-12.35v-52.94H664.85z"/>
			<path class="st2" d="M752.55,1309.62c0,3.82-0.65,7.39-1.97,10.68c-1.32,3.28-3.18,6.15-5.58,8.58
				c-2.39,2.44-5.29,4.35-8.67,5.73c-3.37,1.38-7.12,2.07-11.24,2.07c-4.12,0-7.87-0.7-11.27-2.07c-3.4-1.38-6.29-3.28-8.69-5.73
				c-2.42-2.43-4.28-5.3-5.6-8.58c-1.32-3.3-1.97-6.86-1.97-10.68c0-3.84,0.65-7.39,1.97-10.68c1.32-3.3,3.18-6.15,5.6-8.58
				c2.4-2.42,5.3-4.32,8.69-5.7c3.4-1.38,7.15-2.07,11.27-2.07c4.12,0,7.87,0.7,11.24,2.09c3.38,1.39,6.28,3.31,8.67,5.73
				c2.4,2.42,4.26,5.29,5.58,8.57C751.9,1302.26,752.55,1305.82,752.55,1309.62z M739.98,1309.62c0-2.61-0.34-4.97-1.01-7.08
				c-0.68-2.09-1.66-3.86-2.93-5.31c-1.28-1.46-2.83-2.57-4.67-3.35c-1.83-0.77-3.94-1.15-6.28-1.15c-2.37,0-4.49,0.38-6.34,1.15
				c-1.86,0.78-3.42,1.89-4.69,3.35c-1.28,1.45-2.24,3.22-2.93,5.31c-0.68,2.1-1.02,4.46-1.02,7.08c0,2.64,0.34,5,1.02,7.1
				c0.68,2.09,1.65,3.86,2.93,5.31c1.26,1.46,2.83,2.57,4.69,3.32c1.85,0.77,3.96,1.15,6.34,1.15c2.34,0,4.45-0.38,6.28-1.15
				c1.85-0.75,3.4-1.86,4.67-3.32c1.26-1.45,2.24-3.23,2.93-5.31C739.63,1314.62,739.98,1312.27,739.98,1309.62z"/>
			<path class="st2" d="M809.52,1326.4c1.63,0,3.11-0.27,4.4-0.81c1.29-0.55,2.4-1.34,3.3-2.34c0.9-1.02,1.58-2.26,2.05-3.72
				c0.47-1.48,0.71-3.14,0.71-5v-31.35h12.27v31.35c0,3.24-0.53,6.22-1.58,8.94c-1.05,2.71-2.56,5.06-4.52,7.02
				s-4.35,3.48-7.16,4.57c-2.81,1.09-5.97,1.63-9.48,1.63c-3.54,0-6.72-0.54-9.52-1.63c-2.81-1.09-5.2-2.61-7.16-4.57
				s-3.47-4.3-4.5-7.02c-1.05-2.71-1.56-5.7-1.56-8.94v-31.35h12.27v31.31c0,1.88,0.24,3.54,0.71,5c0.47,1.46,1.15,2.71,2.05,3.74
				c0.9,1.04,2,1.82,3.3,2.37C806.39,1326.13,807.87,1326.4,809.52,1326.4z"/>
			<path class="st2" d="M877.13,1283.24c0.36,0.06,0.68,0.14,0.98,0.27c0.28,0.14,0.57,0.33,0.84,0.57c0.26,0.24,0.57,0.57,0.9,0.98
				l25.15,31.8c-0.1-1.02-0.17-2-0.21-2.97c-0.06-0.95-0.07-1.86-0.07-2.7v-28.02h10.83v52.94h-6.39c-0.95,0-1.75-0.14-2.4-0.44
				c-0.65-0.28-1.29-0.82-1.89-1.59l-24.96-31.54c0.07,0.92,0.13,1.82,0.18,2.71c0.04,0.88,0.07,1.7,0.07,2.49v28.37h-10.83v-52.94
				h6.46C876.32,1283.17,876.76,1283.2,877.13,1283.24z"/>
			<path class="st2" d="M1001.34,1309.62c0,3.82-0.67,7.36-1.99,10.58c-1.32,3.24-3.18,6.04-5.57,8.4c-2.4,2.36-5.29,4.21-8.67,5.53
				c-3.38,1.32-7.13,1.97-11.25,1.97h-20.56v-52.94h20.56c4.12,0,7.87,0.67,11.25,2c3.38,1.34,6.27,3.17,8.67,5.51
				c2.39,2.36,4.25,5.14,5.57,8.38C1000.67,1302.29,1001.34,1305.82,1001.34,1309.62z M988.77,1309.62c0-2.61-0.34-4.99-1.02-7.09
				s-1.65-3.89-2.93-5.36c-1.26-1.46-2.83-2.59-4.66-3.38c-1.85-0.78-3.94-1.18-6.29-1.18h-8.21v34.04h8.21
				c2.36,0,4.45-0.4,6.29-1.18c1.83-0.78,3.4-1.92,4.66-3.38c1.28-1.46,2.24-3.25,2.93-5.36S988.77,1312.27,988.77,1309.62z"/>
			<path class="st2" d="M1083.37,1336.1h-9.52c-1.07,0-1.93-0.24-2.63-0.74c-0.68-0.5-1.16-1.14-1.43-1.92l-3.13-9.22h-20.13
				l-3.11,9.22c-0.26,0.68-0.72,1.29-1.42,1.83c-0.71,0.55-1.56,0.82-2.59,0.82h-9.59l20.49-52.94h12.57L1083.37,1336.1z
				 M1049.38,1315.87h14.46l-4.87-14.51c-0.31-0.91-0.68-2-1.11-3.25c-0.43-1.24-0.84-2.59-1.25-4.05c-0.38,1.48-0.8,2.86-1.21,4.11
				c-0.41,1.26-0.8,2.36-1.15,3.27L1049.38,1315.87z"/>
			<path class="st2" d="M1149.35,1283.17v9.73h-14.89v43.2h-12.27v-43.2h-14.9v-9.73H1149.35z"/>
			<path class="st2" d="M1196.95,1336.1h-12.35v-52.94h12.35V1336.1z"/>
			<path class="st2" d="M1288.06,1309.62c0,3.82-0.65,7.39-1.97,10.68c-1.32,3.28-3.18,6.15-5.58,8.58
				c-2.39,2.44-5.29,4.35-8.67,5.73c-3.37,1.38-7.12,2.07-11.24,2.07c-4.12,0-7.87-0.7-11.27-2.07c-3.4-1.38-6.29-3.28-8.69-5.73
				c-2.42-2.43-4.28-5.3-5.6-8.58c-1.32-3.3-1.97-6.86-1.97-10.68c0-3.84,0.65-7.39,1.97-10.68c1.32-3.3,3.18-6.15,5.6-8.58
				c2.4-2.42,5.3-4.32,8.69-5.7c3.4-1.38,7.15-2.07,11.27-2.07c4.12,0,7.87,0.7,11.24,2.09c3.38,1.39,6.28,3.31,8.67,5.73
				c2.4,2.42,4.26,5.29,5.58,8.57C1287.4,1302.26,1288.06,1305.82,1288.06,1309.62z M1275.48,1309.62c0-2.61-0.34-4.97-1.01-7.08
				c-0.68-2.09-1.66-3.86-2.93-5.31c-1.28-1.46-2.83-2.57-4.67-3.35c-1.83-0.77-3.94-1.15-6.28-1.15c-2.37,0-4.49,0.38-6.34,1.15
				c-1.86,0.78-3.42,1.89-4.69,3.35c-1.28,1.45-2.24,3.22-2.93,5.31c-0.68,2.1-1.02,4.46-1.02,7.08c0,2.64,0.34,5,1.02,7.1
				c0.68,2.09,1.65,3.86,2.93,5.31c1.26,1.46,2.83,2.57,4.69,3.32c1.85,0.77,3.96,1.15,6.34,1.15c2.34,0,4.45-0.38,6.28-1.15
				c1.85-0.75,3.4-1.86,4.67-3.32c1.26-1.45,2.24-3.23,2.93-5.31C1275.14,1314.62,1275.48,1312.27,1275.48,1309.62z"/>
			<path class="st2" d="M1330.83,1283.24c0.36,0.06,0.68,0.14,0.98,0.27c0.28,0.14,0.57,0.33,0.84,0.57
				c0.26,0.24,0.57,0.57,0.9,0.98l25.15,31.8c-0.1-1.02-0.17-2-0.21-2.97c-0.06-0.95-0.07-1.86-0.07-2.7v-28.02h10.83v52.94h-6.39
				c-0.95,0-1.75-0.14-2.4-0.44c-0.65-0.28-1.29-0.82-1.89-1.59l-24.96-31.54c0.07,0.92,0.13,1.82,0.18,2.71
				c0.04,0.88,0.07,1.7,0.07,2.49v28.37h-10.83v-52.94h6.46C1330.02,1283.17,1330.46,1283.2,1330.83,1283.24z"/>
		</g>
	</g>
</g>
</svg>
